<?xml version="1.0" encoding="UTF-8" standalone="no"?>
<!-- Created with Inkscape (http://www.inkscape.org/) -->

<svg
   width="32"
   height="32"
   id="svg5048"
   version="1.1"
   inkscape:version="1.4 (86a8ad7, 2024-10-11)"
   sodipodi:docname="restart_primary_new.svg"
   xmlns:inkscape="http://www.inkscape.org/namespaces/inkscape"
   xmlns:sodipodi="http://sodipodi.sourceforge.net/DTD/sodipodi-0.dtd"
   xmlns="http://www.w3.org/2000/svg"
   xmlns:svg="http://www.w3.org/2000/svg"
   xmlns:rdf="http://www.w3.org/1999/02/22-rdf-syntax-ns#"
   xmlns:cc="http://creativecommons.org/ns#"
   xmlns:dc="http://purl.org/dc/elements/1.1/">
  <defs
     id="defs5050">
    <style
       id="current-color-scheme"
       type="text/css">      .ColorScheme-Text {
        color:#31363b;
      }
      .ColorScheme-Background{
        color:#eff0f1;
      }
      .ColorScheme-ViewText {
        color:#31363b;
      }
      .ColorScheme-ViewBackground{
        color:#fcfcfc;
      }
      .ColorScheme-ViewHover {
        color:#3daee9;
      }
      .ColorScheme-ViewFocus{
        color:#3daee9;
      }
      .ColorScheme-ButtonText {
        color:#31363b;
      }
      .ColorScheme-ButtonBackground{
        color:#eff0f1;
      }
      .ColorScheme-ButtonHover {
        color:#3daee9;
      }
      .ColorScheme-ButtonFocus{
        color:#3daee9;
      }</style>
    <style
       type="text/css"
       id="current-color-scheme-75">      .ColorScheme-Text {
        color:#31363b;
      }
      .ColorScheme-Background{
        color:#eff0f1;
      }
      .ColorScheme-ViewText {
        color:#31363b;
      }
      .ColorScheme-ViewBackground{
        color:#fcfcfc;
      }
      .ColorScheme-ViewHover {
        color:#3daee9;
      }
      .ColorScheme-ViewFocus{
        color:#3daee9;
      }
      .ColorScheme-ButtonText {
        color:#31363b;
      }
      .ColorScheme-ButtonBackground{
        color:#eff0f1;
      }
      .ColorScheme-ButtonHover {
        color:#3daee9;
      }
      .ColorScheme-ButtonFocus{
        color:#3daee9;
      }</style>
    <style
       id="current-color-scheme-7"
       type="text/css">      .ColorScheme-Text {
        color:#31363b;
      }
      .ColorScheme-Background{
        color:#eff0f1;
      }
      .ColorScheme-ViewText {
        color:#31363b;
      }
      .ColorScheme-ViewBackground{
        color:#fcfcfc;
      }
      .ColorScheme-ViewHover {
        color:#3daee9;
      }
      .ColorScheme-ViewFocus{
        color:#3daee9;
      }
      .ColorScheme-ButtonText {
        color:#31363b;
      }
      .ColorScheme-ButtonBackground{
        color:#eff0f1;
      }
      .ColorScheme-ButtonHover {
        color:#3daee9;
      }
      .ColorScheme-ButtonFocus{
        color:#3daee9;
      }</style>
  </defs>
  <sodipodi:namedview
     id="base"
     pagecolor="#1d1d1d"
     bordercolor="#666666"
     borderopacity="1.0"
     inkscape:pageopacity="0.10588235"
     inkscape:pageshadow="2"
     inkscape:zoom="22.627416"
     inkscape:cx="21.743535"
     inkscape:cy="12.617437"
     inkscape:document-units="px"
     inkscape:current-layer="svg5048"
     showgrid="true"
     inkscape:window-width="2560"
     inkscape:window-height="1009"
     inkscape:window-x="-8"
     inkscape:window-y="-8"
     inkscape:window-maximized="1"
     fit-margin-top="0"
     fit-margin-left="0"
     fit-margin-right="0"
     fit-margin-bottom="0"
     inkscape:snap-bbox="true"
     inkscape:showpageshadow="2"
     inkscape:pagecheckerboard="0"
     inkscape:deskcolor="#d1d1d1">
    <inkscape:grid
       type="xygrid"
       id="grid3011"
       empspacing="4"
       visible="true"
       enabled="true"
       snapvisiblegridlinesonly="true"
       color="#0000ff"
       opacity="0.0196078"
       empcolor="#0000ff"
       empopacity="0.03921569"
       originx="0"
       originy="0"
       spacingy="1"
       spacingx="1"
       units="px" />
  </sodipodi:namedview>
  <metadata
     id="metadata5053">
    <rdf:RDF>
      <cc:Work
         rdf:about="">
        <dc:format>image/svg+xml</dc:format>
        <dc:type
           rdf:resource="http://purl.org/dc/dcmitype/StillImage" />
      </cc:Work>
    </rdf:RDF>
  </metadata>
  <g
     inkscape:label="Layer 1"
     inkscape:groupmode="layer"
     id="layer1"
     transform="translate(-6.1297004,-1009.753)">
    <path
       style="display:inline;fill:#ffffff;stroke-width:0.0441942"
       d="M 14.716661,25.915007 C 14.177997,25.853894 13.316772,25.661437 12.772117,25.480463 11.246107,24.97341 9.9613442,24.1773 8.8148333,23.028315 7.6847228,21.895765 6.8981074,20.62198 6.3903373,19.102272 6.1564768,18.40235 6.1865633,18.167127 6.5282067,18.024379 c 0.3009109,-0.125729 0.5546897,0.05261 0.6700704,0.470884 0.1184159,0.429275 0.4244753,1.194324 0.6619359,1.654624 1.9154318,3.712921 6.146433,5.615283 10.221505,4.595839 1.299993,-0.325214 2.553561,-0.966352 3.595525,-1.838933 1.2637,-1.058272 2.21927,-2.461338 2.737891,-4.020052 0.334358,-1.004909 0.466187,-1.823867 0.466187,-2.896075 0,-0.78968 -0.08316,-1.489435 -0.259827,-2.18641 C 23.862762,10.811014 21.655192,8.4212231 18.75324,7.4516138 15.859269,6.4846714 12.717846,7.0223251 10.297243,8.8988557 9.7717905,9.3062037 9.09813,9.993018 8.687225,10.540311 l -0.3483982,0.464039 1.6828042,0.0221 1.682805,0.0221 0.113319,0.106505 c 0.152481,0.143312 0.193111,0.375463 0.09696,0.554005 -0.148148,0.275094 -0.07524,0.266272 -2.3245788,0.281265 -1.3854785,0.0092 -2.1082527,-0.0019 -2.2183864,-0.03421 -0.089847,-0.02635 -0.2041989,-0.09983 -0.2541165,-0.163289 -0.088728,-0.112799 -0.090756,-0.163463 -0.090594,-2.2638875 1.576e-4,-2.050026 0.0041,-2.1549653 0.086089,-2.2894251 0.1696566,-0.2782432 0.5965697,-0.2708208 0.7831428,0.013616 0.071851,0.1095386 0.083219,0.2592088 0.1028744,1.3543693 L 8.021243,9.8387152 8.2779295,9.5304237 C 9.7134613,7.806288 11.892028,6.5683526 14.208428,6.1605144 c 0.666285,-0.1173099 2.015813,-0.1615154 2.677229,-0.087696 2.962747,0.3306666 5.548342,1.8693941 7.209887,4.2907156 1.318754,1.921782 1.933469,4.280742 1.711071,6.566208 -0.451874,4.643691 -4.05293,8.366836 -8.672587,8.966623 -0.562882,0.07308 -1.850039,0.08301 -2.417367,0.01864 z"
       id="path1"
       transform="translate(6.1297004,1009.753)" />
  </g>
</svg>
