<?xml version="1.0" encoding="UTF-8" standalone="no"?>
<!-- Created with Inkscape (http://www.inkscape.org/) -->

<svg
   width="32"
   height="32"
   id="svg5048"
   version="1.1"
   inkscape:version="1.4 (86a8ad7, 2024-10-11)"
   sodipodi:docname="shutdown_primary_new.svg"
   xmlns:inkscape="http://www.inkscape.org/namespaces/inkscape"
   xmlns:sodipodi="http://sodipodi.sourceforge.net/DTD/sodipodi-0.dtd"
   xmlns="http://www.w3.org/2000/svg"
   xmlns:svg="http://www.w3.org/2000/svg"
   xmlns:rdf="http://www.w3.org/1999/02/22-rdf-syntax-ns#"
   xmlns:cc="http://creativecommons.org/ns#"
   xmlns:dc="http://purl.org/dc/elements/1.1/">
  <defs
     id="defs5050">
    <style
       id="current-color-scheme"
       type="text/css">      .ColorScheme-Text {
        color:#31363b;
      }
      .ColorScheme-Background{
        color:#eff0f1;
      }
      .ColorScheme-ViewText {
        color:#31363b;
      }
      .ColorScheme-ViewBackground{
        color:#fcfcfc;
      }
      .ColorScheme-ViewHover {
        color:#3daee9;
      }
      .ColorScheme-ViewFocus{
        color:#3daee9;
      }
      .ColorScheme-ButtonText {
        color:#31363b;
      }
      .ColorScheme-ButtonBackground{
        color:#eff0f1;
      }
      .ColorScheme-ButtonHover {
        color:#3daee9;
      }
      .ColorScheme-ButtonFocus{
        color:#3daee9;
      }</style>
    <style
       type="text/css"
       id="current-color-scheme-753">      .ColorScheme-Text {
        color:#31363b;
      }
      .ColorScheme-Background{
        color:#eff0f1;
      }
      .ColorScheme-ViewText {
        color:#31363b;
      }
      .ColorScheme-ViewBackground{
        color:#fcfcfc;
      }
      .ColorScheme-ViewHover {
        color:#3daee9;
      }
      .ColorScheme-ViewFocus{
        color:#3daee9;
      }
      .ColorScheme-ButtonText {
        color:#31363b;
      }
      .ColorScheme-ButtonBackground{
        color:#eff0f1;
      }
      .ColorScheme-ButtonHover {
        color:#3daee9;
      }
      .ColorScheme-ButtonFocus{
        color:#3daee9;
      }</style>
    <style
       id="current-color-scheme-75"
       type="text/css">      .ColorScheme-Text {
        color:#31363b;
      }
      .ColorScheme-Background{
        color:#eff0f1;
      }
      .ColorScheme-ViewText {
        color:#31363b;
      }
      .ColorScheme-ViewBackground{
        color:#fcfcfc;
      }
      .ColorScheme-ViewHover {
        color:#3daee9;
      }
      .ColorScheme-ViewFocus{
        color:#3daee9;
      }
      .ColorScheme-ButtonText {
        color:#31363b;
      }
      .ColorScheme-ButtonBackground{
        color:#eff0f1;
      }
      .ColorScheme-ButtonHover {
        color:#3daee9;
      }
      .ColorScheme-ButtonFocus{
        color:#3daee9;
      }</style>
    <style
       type="text/css"
       id="current-color-scheme-7">      .ColorScheme-Text {
        color:#31363b;
      }
      .ColorScheme-Background{
        color:#eff0f1;
      }
      .ColorScheme-ViewText {
        color:#31363b;
      }
      .ColorScheme-ViewBackground{
        color:#fcfcfc;
      }
      .ColorScheme-ViewHover {
        color:#3daee9;
      }
      .ColorScheme-ViewFocus{
        color:#3daee9;
      }
      .ColorScheme-ButtonText {
        color:#31363b;
      }
      .ColorScheme-ButtonBackground{
        color:#eff0f1;
      }
      .ColorScheme-ButtonHover {
        color:#3daee9;
      }
      .ColorScheme-ButtonFocus{
        color:#3daee9;
      }</style>
  </defs>
  <sodipodi:namedview
     id="base"
     pagecolor="#383838"
     bordercolor="#666666"
     borderopacity="1.0"
     inkscape:pageopacity="0.12941176"
     inkscape:pageshadow="2"
     inkscape:zoom="11.313708"
     inkscape:cx="-7.2478448"
     inkscape:cy="20.815457"
     inkscape:document-units="px"
     inkscape:current-layer="layer1"
     showgrid="true"
     inkscape:window-width="2560"
     inkscape:window-height="1009"
     inkscape:window-x="-8"
     inkscape:window-y="-8"
     inkscape:window-maximized="1"
     fit-margin-top="0"
     fit-margin-left="0"
     fit-margin-right="0"
     fit-margin-bottom="0"
     inkscape:snap-bbox="true"
     inkscape:showpageshadow="2"
     inkscape:pagecheckerboard="0"
     inkscape:deskcolor="#d1d1d1">
    <inkscape:grid
       type="xygrid"
       id="grid3001"
       empspacing="4"
       visible="true"
       enabled="true"
       snapvisiblegridlinesonly="true"
       color="#0101ff"
       opacity="0.0196078"
       empcolor="#0000ff"
       empopacity="0.03921569"
       originx="0"
       originy="0"
       spacingy="1"
       spacingx="1"
       units="px" />
  </sodipodi:namedview>
  <metadata
     id="metadata5053">
    <rdf:RDF>
      <cc:Work
         rdf:about="">
        <dc:format>image/svg+xml</dc:format>
        <dc:type
           rdf:resource="http://purl.org/dc/dcmitype/StillImage" />
      </cc:Work>
    </rdf:RDF>
  </metadata>
  <g
     inkscape:label="Layer 1"
     inkscape:groupmode="layer"
     id="layer1"
     transform="translate(-6.129729,-1009.753)">
    <path
       style="display:inline;fill:#ffffff;stroke-width:0.0883884"
       d="M 14.18633,25.818337 C 10.49627,25.108652 7.5501219,22.55692 6.4201841,19.091884 4.7443303,13.952757 7.5286782,8.3394524 12.617789,6.5973794 13.359865,6.3433566 13.676974,6.3488752 13.799571,6.6179458 13.957062,6.9636013 13.774363,7.1649695 13.104482,7.384064 12.77584,7.491551 12.16085,7.7564971 11.737837,7.9728332 9.4267157,9.1547796 7.7805588,11.220495 7.1032995,13.788583 c -0.2022293,0.766829 -0.2330988,1.059464 -0.2330988,2.209709 0,1.150244 0.03087,1.442878 0.2330988,2.209708 0.408483,1.54892 1.1373834,2.867555 2.2106944,3.999309 2.6871991,2.833521 6.7130651,3.611046 10.3664501,2.002096 1.747728,-0.769698 3.631939,-2.653045 4.40651,-4.404487 1.548435,-3.501286 0.887188,-7.384562 -1.714651,-10.0695646 -1.080711,-1.1152536 -2.301226,-1.8817413 -3.745367,-2.3521026 -0.622421,-0.2027247 -0.825944,-0.4022642 -0.7273,-0.7130635 0.139213,-0.4386234 0.937182,-0.2882278 2.413779,0.4549324 1.996818,1.004984 3.433936,2.4475371 4.436971,4.4537543 0.318592,0.637232 0.624625,1.413518 0.766591,1.944544 0.214653,0.802911 0.2363,1.029633 0.2363,2.474874 0,1.44048 -0.02201,1.672745 -0.232626,2.455194 -0.407036,1.512133 -1.201966,2.992305 -2.258477,4.205323 -1.123225,1.289614 -3.158354,2.522929 -4.921591,2.98255 -1.088462,0.283728 -3.143898,0.371293 -4.154253,0.176978 z"
       id="path1"
       transform="translate(6.129729,1009.753)" />
    <path
       style="display:inline;fill:#ffffff;stroke-width:0.0883884"
       d="m 15.695246,12.809997 c -0.121831,-0.12183 -0.138896,-0.592048 -0.138896,-3.8272151 0,-2.7508419 0.02696,-3.7152789 0.106066,-3.7943857 0.136729,-0.1367295 0.535022,-0.1367295 0.671751,0 0.07911,0.079107 0.106066,1.0435438 0.106066,3.7943857 0,3.2351671 -0.01706,3.7053851 -0.138896,3.8272151 -0.07639,0.07639 -0.212763,0.138897 -0.303045,0.138897 -0.09028,0 -0.226653,-0.0625 -0.303046,-0.138897 z"
       id="path2"
       transform="translate(6.129729,1009.753)" />
  </g>
</svg>
